<svg id="Calque_1" data-name="Calque 1" xmlns="http://www.w3.org/2000/svg" viewBox="0 0 40 32.54"><title>arrow-rigth</title><path d="M14.85,1.15a3.13,3.13,0,0,0-.71,2.52,4.22,4.22,0,0,0,1.77,2.1C17.55,6.94,19.32,7.91,21,9a71.79,71.79,0,0,1,6.87,4.91c-3.39,0-6.79,0-10.19,0-1.82,0-3.63-.1-5.45-.13-3,0-6.06-.09-9.09,0a6.32,6.32,0,0,0-.84.09A2.36,2.36,0,0,0,.4,16.14v.17a2.24,2.24,0,0,0,1.42,2.15,2.37,2.37,0,0,0,.36.09,37.66,37.66,0,0,0,5,.35q8.49,0,17,0c1.34,0,2.67-.2,4.41-.33-.51.39-.69.54-.89.66-4.13,2.51-8.27,5-12.42,7.51a2.41,2.41,0,0,0,1.15,4.59,4.36,4.36,0,0,0,1.8-.71c6.49-3.91,13-7.8,19.41-11.83,2.47-1.55,2.75-3.49.2-5-3-1.84-6.07-3.63-9.1-5.42C26.37,7,24,5.64,21.7,4.2c-1.46-.9-2.81-2-4.21-2.95A2.76,2.76,0,0,0,14.85,1.15Z"/></svg>