<svg id="Calque_1" data-name="Calque 1" xmlns="http://www.w3.org/2000/svg" viewBox="0 0 24 24"><defs><style>.cls-1{fill:#ffd261;}.cls-2{fill:#3b86fb;}</style></defs><title>icon</title><path class="cls-1" d="M23.82,0H.17C0,0,0,0,0,.18V1.81C0,2,0,2,.19,2H10.78C11,2,11,2,11,2.21V6H13V2.11c0-.06,0-.09.1-.09h10.7C24,2,24,2,24,1.83V.21C24,0,24,0,23.82,0Z"/><path class="cls-2" d="M22.94,19.12c-.38-1.64-.74-3.28-1.1-4.92-.32-1.43-.63-2.84-1-4.25-.27-1.26-.55-2.51-.83-3.77C20,6,20,6,19.82,6H4.09C4,6,4,6,4,6.1s-.07.31-.11.48C3.55,8,3.25,9.34,2.93,10.72s-.66,3-1,4.54-.65,3-1,4.44-.6,2.74-.9,4.12C0,24,0,24,.19,24h23.7c.1,0,.12,0,.1-.12Zm-8.1-1.82a4,4,0,0,1-2.59,1.14,2.85,2.85,0,0,1-.29,0h0l-.21,0a4,4,0,0,1-2.7-6.65l.13-.15.07-.06A4,4,0,0,1,12,10.49a4.23,4.23,0,0,1,1.19.19,3.9,3.9,0,0,1,1.63,1h0s.07.1.11.14A4,4,0,0,1,16,14.49a4.26,4.26,0,0,1-.08.8A4,4,0,0,1,14.84,17.3Z"/></svg>