<svg id="Calque_1" data-name="Calque 1" xmlns="http://www.w3.org/2000/svg" viewBox="0 0 24 24"><defs><style>.cls-1{fill:#3f3f3f;}</style></defs><title>icons</title><path class="cls-1" d="M23.89,12A11.89,11.89,0,1,1,12,.12,11.88,11.88,0,0,1,23.89,12ZM10.18,16.08c.35,0,.65,0,1,0s.29-.07.35-.27l2-6.74c.11-.36.22-.73.34-1.15-.35,0-.64,0-.94,0a.32.32,0,0,0-.38.28q-1,3.32-2,6.63C10.43,15.23,10.31,15.63,10.18,16.08Zm4.1-1.14.36-.19,3.83-2.11a.68.68,0,0,0,0-1.07q-2-1.23-3.94-2.45L14.28,9c0,.38,0,.71,0,1a.38.38,0,0,0,.24.41l2.58,1.49.23.16c-1,.49-1.9,1-2.82,1.45-.09,0-.21.14-.21.22C14.27,14.12,14.28,14.5,14.28,14.94Zm-4.56,0a4.49,4.49,0,0,1,0-.74.74.74,0,0,0-.52-.87c-.85-.38-1.67-.84-2.53-1.28L7,11.86,9.51,10.4c.07-.05.19-.12.2-.18,0-.41,0-.82,0-1.26l-.21.11-4,2.51a.69.69,0,0,0,0,1.05l3.2,1.76Z"/></svg>