<svg id="Calque_1" data-name="Calque 1" xmlns="http://www.w3.org/2000/svg" viewBox="0 0 24 24"><defs><style>.cls-1{fill:#3b86fb;}.cls-2{fill:#fff;}</style></defs><title>icons</title><path class="cls-1" d="M12,.12A11.88,11.88,0,1,0,23.89,12,11.88,11.88,0,0,0,12,.12Z"/><path class="cls-2" d="M11.87,9.26l1.51,0a.15.15,0,0,1,.13.06A10.7,10.7,0,0,1,14.67,11c.11.22.22.44.32.66a.09.09,0,0,1,0,.07l-.57,1.08-.46.87-.47.89a.13.13,0,0,1-.12.08c-.6,0-1.2,0-1.8,0l-1-.08a.09.09,0,0,1-.07-.05L10,13.59c-.23-.38-.47-.76-.71-1.14L9,12.09A.17.17,0,0,1,9,12a15.6,15.6,0,0,1,.85-2l.37-.69a.14.14,0,0,1,.11-.07c.51,0,1,0,1.52,0Z"/><path class="cls-2" d="M14.54,16.8,14.18,16l-.47-1.08a.17.17,0,0,1,0-.1l.65-1.25c.29-.55.59-1.1.88-1.66a0,0,0,0,1,0,0l1.14-.26.86-.2.37-.07.15.38c.22.55.44,1.1.65,1.65.07.17.14.34.2.51a.14.14,0,0,1,0,.09,6.6,6.6,0,0,1-.56,1.13c-.14.22-.29.44-.44.65a6,6,0,0,1-.38.47.16.16,0,0,1-.09.05l-.82.17L15,16.7Z"/><path class="cls-2" d="M11.68,9,10.3,9a.11.11,0,0,1-.08,0c-.17-.17-.34-.34-.5-.52L9,7.59q-.12-.16-.24-.36s0-.05,0-.06L9.86,5.94l.56-.64.09,0c.33,0,.66-.07,1-.08s.89,0,1.34,0l.47,0a.07.07,0,0,1,.06,0l.82,1,.64.78s0,.07,0,.11A10.36,10.36,0,0,1,14,8.37c-.15.18-.3.35-.44.53a.11.11,0,0,1-.1,0Z"/><path class="cls-2" d="M6.32,11.64,7,11.8l1.66.37a.12.12,0,0,1,.1.08l.81,1.3c.22.35.42.69.64,1a.26.26,0,0,1,0,.29c-.22.49-.44,1-.65,1.48l-.19.42s0,.05-.07,0l-.67-.08-1.35-.16L7,16.52a.1.1,0,0,1-.08,0c-.16-.21-.33-.42-.47-.64-.25-.37-.48-.75-.71-1.14-.09-.16-.18-.33-.26-.5a.09.09,0,0,1,0-.07c.22-.66.43-1.32.65-2C6.21,12,6.26,11.81,6.32,11.64Z"/><path class="cls-2" d="M12.24,19.2v-.65s0,0,0-.05l.67-.28a4.51,4.51,0,0,0,1.47-1.09.12.12,0,0,1,.08,0l1.47-.3L17,16.57h.06a3.48,3.48,0,0,0,0,.36.24.24,0,0,1-.09.27,7.44,7.44,0,0,1-1.13.88,7,7,0,0,1-1.51.73,6.41,6.41,0,0,1-1.29.32c-.27,0-.54.06-.81.08Z"/><path class="cls-2" d="M13.61,5.08l.3-.28a.06.06,0,0,1,.06,0l.89.31a7,7,0,0,1,1,.48,6.93,6.93,0,0,1,1.07.8,6.64,6.64,0,0,1,.95,1c.15.19.28.39.42.59l-.72.41-.29-.27a4.32,4.32,0,0,0-.89-.65A6.89,6.89,0,0,0,15.21,7c-.08,0-.12-.1-.17-.17l-1-1.17Z"/><path class="cls-2" d="M7,16.8l.53.07L8.76,17l.68.09a.08.08,0,0,1,.07,0,5.88,5.88,0,0,0,1.33.93,5.56,5.56,0,0,0,1,.43l.08,0v.68h-.17A7.9,7.9,0,0,1,10.18,19a7.27,7.27,0,0,1-2.06-.89A6.4,6.4,0,0,1,7,17.26a.05.05,0,0,1,0-.05C7,17.08,7,16.94,7,16.8Z"/><path class="cls-2" d="M18.39,8.24c.05.09.1.17.14.26a7.78,7.78,0,0,1,.44,1,7.2,7.2,0,0,1,.35,1.78,6.66,6.66,0,0,1-.05,1.61l-.09.5a.16.16,0,0,1-.06.08l-.26.14-.17-.44c-.28-.72-.56-1.44-.85-2.17a.65.65,0,0,1,0-.24c0-.3,0-.6,0-.91a6.42,6.42,0,0,0-.14-1.06c0-.15,0-.15.1-.23l.53-.31Z"/><path class="cls-2" d="M10.13,5.21l-.53.61c-.22.24-.43.48-.64.73s-.33.37-.49.55l-.06,0a7.81,7.81,0,0,0-2,1.18l-.32.28s0,0-.06,0l-.52-.27L5.73,8a8.23,8.23,0,0,1,.65-.9,8,8,0,0,1,.83-.82,7.06,7.06,0,0,1,1.27-.89,7.84,7.84,0,0,1,1.15-.5h.08l.41.29Z"/><path class="cls-2" d="M5.42,8.59l.4.21,0,0C6,8.85,6,8.93,6,9a9.39,9.39,0,0,0,0,1.5c0,.27.07.55.1.82a.28.28,0,0,1,0,.09c-.24.74-.48,1.48-.73,2.22a2.25,2.25,0,0,1-.08.24l-.4-.29a.07.07,0,0,1,0-.06c0-.26-.11-.52-.14-.79a8.77,8.77,0,0,1,0-1,6.25,6.25,0,0,1,.17-1.49,6.3,6.3,0,0,1,.36-1.14l.19-.45Z"/></svg>