<svg id="Calque_1" data-name="Calque 1" xmlns="http://www.w3.org/2000/svg" viewBox="0 0 24 24"><defs><style>.cls-1{fill:#3b86fb;}.cls-2{fill:#ffd261;}</style></defs><title>icon</title><path class="cls-1" d="M0,8l.11.06,3.79,2.53L6.12,12l3.37,2.28,2.42,1.61a.12.12,0,0,0,.17,0l3.2-2.13,2.38-1.58,4.4-3,1.8-1.2L24,8c0,.07,0,.11,0,.16V19.83c0,.16,0,.16-.16.16H.18C0,20,0,20,0,19.83V8.15C0,8.1,0,8.06,0,8Z"/><path class="cls-2" d="M.07,4H23.9V4l-.48.33-1.7,1.13L20.05,6.61c-.77.5-1.53,1-2.29,1.52L15.15,9.87l-1.8,1.21-1.25.82a.15.15,0,0,1-.21,0L9.36,10.21,6.2,8.11,3.85,6.54,1.54,5,.19,4.1Z"/></svg>