<svg id="Calque_1" data-name="Calque 1" xmlns="http://www.w3.org/2000/svg" viewBox="0 0 24 24"><defs><style>.cls-1{fill:#3b86fb;}.cls-2{fill:#ffd261;}</style></defs><title>icon</title><path class="cls-1" d="M12,24l-.07-.06C10.94,23,10,22,9,21L7.78,19.81,6.6,18.62l-1.21-1.2c-.33-.34-.67-.67-1-1s-.68-.68-1-1l-1-1-1-1L.2,12.22c-.05-.05-.09-.1-.15-.15S0,12,.05,11.9l1.31-1.3L2.9,9.06C3,9,3,9,3.08,9.06l1.8,1.8c.44.43.87.87,1.31,1.31q2.64,2.64,5.27,5.29l.45.45c.05.05.09.06.14,0s.14-.12.2-.18l5.38-5.37L20.9,9.08c.11-.11.11-.11.22,0l2.8,2.8c.11.11.11.11,0,.22l-8.79,8.79-2.91,2.92L12,24Z"/><path class="cls-2" d="M12,0l.08.06c.32.31.65.61,1,.93L17.9,5.86c.12.12.12.12,0,.25l-5.68,5.67c-.23.23-.23.23-.46,0L10,10,8.3,8.33C7.56,7.6,6.83,6.86,6.09,6.12,6,6,6,6,6.09,5.87L7.46,4.49l1-1L9.68,2.27l1-1c.4-.4.8-.81,1.21-1.21Z"/></svg>