<svg id="Calque_1" data-name="Calque 1" xmlns="http://www.w3.org/2000/svg" viewBox="0 0 24 24"><defs><style>.cls-1{fill:#3b86fb;}.cls-2{fill:#ffd261;}</style></defs><title>icon</title><path class="cls-1" d="M2.67,13.89H5.11a.45.45,0,0,1,.35.14l2.46,2.44c.08.08.13.07.2,0l2.72-2.67,1.59-1.57L15,9.67c.16-.16.16-.16.33,0l4.19,4.12a.34.34,0,0,0,.28.12h4c.23,0,.23,0,.19.22a12,12,0,0,1-.86,2.75,11.72,11.72,0,0,1-1.91,3A12.19,12.19,0,0,1,18,22.44a12,12,0,0,1-2.9,1.17,12.17,12.17,0,0,1-2.33.37,13,13,0,0,1-2.07-.05,11.69,11.69,0,0,1-3.35-.84,11.66,11.66,0,0,1-3.06-1.81A11.87,11.87,0,0,1,0,14.05c0-.15,0-.16.14-.16Z"/><path class="cls-2" d="M22.64,9.91H21.49a.4.4,0,0,1-.29-.12L15.37,4.05c-.19-.19-.14-.19-.33,0L10.76,8.26l-2.6,2.56c-.11.11-.13.12-.24,0-.28-.28-.55-.56-.83-.83a.33.33,0,0,0-.18-.08H.23C0,9.91,0,9.91.05,9.7A13.33,13.33,0,0,1,.53,8,12.48,12.48,0,0,1,2,5.15,11.55,11.55,0,0,1,3.86,3.06,12.22,12.22,0,0,1,8.64.45,9.79,9.79,0,0,1,10.72.06C11.28,0,11.84,0,12.39,0a7.72,7.72,0,0,1,1.18.09A13.62,13.62,0,0,1,15.14.4a15.21,15.21,0,0,1,1.61.54A11.79,11.79,0,0,1,19.4,2.45a13.22,13.22,0,0,1,1.92,1.82,11.82,11.82,0,0,1,1.82,2.87,10.44,10.44,0,0,1,.68,2c.05.21.09.42.14.63s0,.13-.11.13Z"/></svg>