<svg id="Calque_1" data-name="Calque 1" xmlns="http://www.w3.org/2000/svg" viewBox="0 0 24 24"><defs><style>.cls-1{fill:#3b86fb;}.cls-2{fill:#ffd261;}.cls-3{fill:#fff;}</style></defs><title>icon</title><path class="cls-1" d="M24,16.35v7.46c0,.19,0,.19-.18.19H16.13a8,8,0,0,1-5.53-2.11,8.18,8.18,0,0,1-1.86-2.57,7.8,7.8,0,0,1-.67-2.41c0-.14,0-.28,0-.41l.57-.61h.05a7.3,7.3,0,0,0,2.48-.62A7.86,7.86,0,0,0,14.85,12a8,8,0,0,0,1-2.92A7.31,7.31,0,0,0,16,8V8h0l.13-.14a8,8,0,0,1,7.43,5.45A7.59,7.59,0,0,1,24,15.55C24,15.81,24,16.08,24,16.35Z"/><path class="cls-2" d="M16,7.76l-.1.1h-.05l-.74,0a7.55,7.55,0,0,0-2.1.54A7.63,7.63,0,0,0,11.1,9.56a7.89,7.89,0,0,0-2,2.4,7.63,7.63,0,0,0-.74,1.77A8.12,8.12,0,0,0,8,15.56v.2l-.17.18H.23s-.08,0-.11,0a.24.24,0,0,1-.1-.1.33.33,0,0,1,0-.1V8A7.85,7.85,0,0,1,.54,5.22,8,8,0,0,1,5.67.35a8.09,8.09,0,0,1,3-.33A7.66,7.66,0,0,1,10.5.4a8.46,8.46,0,0,1,1.56.72,8.15,8.15,0,0,1,3.13,3.4,8.25,8.25,0,0,1,.69,2.16c0,.34.07.69.09,1A.07.07,0,0,0,16,7.76Z"/><path class="cls-3" d="M16,8V8a7.32,7.32,0,0,1-.09,1.05A7.31,7.31,0,0,0,16,8V8Z"/></svg>