<svg id="Calque_1" data-name="Calque 1" xmlns="http://www.w3.org/2000/svg" viewBox="0 0 24 24"><defs><style>.cls-1{fill:#3b86fb;}.cls-2{fill:#ffd261;}</style></defs><title>icon</title><path class="cls-1" d="M3.1,23.9A3,3,0,0,1,2.64,18c.24,0,.48,0,.72-.05A2.85,2.85,0,0,0,5,17.2a2.82,2.82,0,0,0,1-1.89,2.87,2.87,0,0,0-.7-2.26,2.9,2.9,0,0,0-1.78-1l-.49,0a3.12,3.12,0,0,1-1.86-.71A2.9,2.9,0,0,1,.12,8.84a2.83,2.83,0,0,1,1-2.07,2.78,2.78,0,0,1,1.47-.68,3,3,0,0,1,.52,0,2.92,2.92,0,0,0,2.5-1.46,3,3,0,0,0,.41-1.51A2.88,2.88,0,0,1,7.67.44,2.92,2.92,0,0,1,11.13,1,2.89,2.89,0,0,1,12,3.33,3,3,0,0,1,9.48,6c-.28.05-.58,0-.86.08a3,3,0,0,0-1,5.54,5.16,5.16,0,0,0,.78.28,5.47,5.47,0,0,0,1,.12,3,3,0,0,1,1.57.72,2.89,2.89,0,0,1,1,1.76c0,.22,0,.46.06.69a3,3,0,0,0,3,2.74,3,3,0,0,1,2.88,2.57,2.9,2.9,0,0,1-1,2.66,2.87,2.87,0,0,1-1.9.71A2.92,2.92,0,0,1,12.83,23a2.75,2.75,0,0,1-.76-1.47,6.93,6.93,0,0,1-.1-.78A3,3,0,0,0,9.1,18a2.83,2.83,0,0,0-2,.74,2.86,2.86,0,0,0-1,2.22,3,3,0,0,1-2.56,2.94Z"/><path class="cls-2" d="M20.88.1a3,3,0,0,1,2.5,1.33,2.84,2.84,0,0,1,.5,1.46A2.89,2.89,0,0,1,23,5.18a2.88,2.88,0,0,1-1.85.87l-.37,0A2.79,2.79,0,0,0,19,6.82a2.88,2.88,0,0,0-1,2.54,2.91,2.91,0,0,0,.83,1.74,3,3,0,0,0,1.46.82c.37.09.73.07,1.09.13a2.94,2.94,0,0,1,1.67.84,2.88,2.88,0,0,1,.81,1.55,2.92,2.92,0,0,1-.26,1.86,2.88,2.88,0,0,1-2,1.58,2.8,2.8,0,0,1-2.33-.46A2.86,2.86,0,0,1,18,15.3c0-.27,0-.53-.07-.8A2.88,2.88,0,0,0,17,12.83a3,3,0,0,0-1.55-.77c-.25,0-.51,0-.76-.06a3.11,3.11,0,0,1-1.66-.72A2.9,2.9,0,0,1,12.18,10,2.64,2.64,0,0,1,12,8.61a3,3,0,0,1,1.71-2.29A3,3,0,0,1,15,6.05a2.91,2.91,0,0,0,2.4-1.21,2.71,2.71,0,0,0,.55-1.37,3.24,3.24,0,0,0,0-.44,3,3,0,0,1,.71-1.86A2.82,2.82,0,0,1,20.16.22,6.32,6.32,0,0,1,20.88.1Z"/></svg>