<svg id="Calque_1" data-name="Calque 1" xmlns="http://www.w3.org/2000/svg" viewBox="0 0 24 16"><defs><style>.cls-1{fill:#007730;}.cls-2{fill:#d6001f;}.cls-3{fill:#f9de19;}</style></defs><title>drapeau</title><path class="cls-1" d="M.9,0H8A0,0,0,0,1,8,0V16a0,0,0,0,1,0,0H.9a.9.9,0,0,1-.9-.9V.9A.9.9,0,0,1,.9,0Z"/><rect class="cls-2" x="8" width="8" height="16"/><path class="cls-3" d="M16,0h7.1a.9.9,0,0,1,.9.9V15.1a.9.9,0,0,1-.9.9H16a0,0,0,0,1,0,0V0A0,0,0,0,1,16,0Z"/><polygon class="cls-3" points="12.01 6.07 11.54 7.57 10.07 7.57 11.3 8.48 10.77 9.93 12.01 9 13.19 9.93 12.71 8.46 13.93 7.57 12.39 7.57 12.01 6.07"/></svg>