<svg id="Calque_1" data-name="Calque 1" xmlns="http://www.w3.org/2000/svg" viewBox="0 0 60 11.95"><defs><style>.cls-1{fill:#f9de19;}.cls-2{fill:#b7b7b7;}</style></defs><title>etoiles</title><polygon class="cls-1" points="6.02 0 4.58 4.65 0 4.65 3.82 7.45 2.17 11.95 6.02 9.07 9.7 11.95 8.21 7.4 12 4.63 7.22 4.63 6.02 0"/><polygon class="cls-1" points="18.02 0 16.57 4.65 12 4.65 15.82 7.45 14.17 11.95 18.02 9.07 21.7 11.95 20.21 7.4 24 4.63 19.22 4.63 18.02 0"/><polygon class="cls-1" points="30.02 0 28.57 4.65 24 4.65 27.82 7.45 26.17 11.95 30.02 9.07 33.7 11.95 32.21 7.4 36 4.63 31.21 4.63 30.02 0"/><polygon class="cls-1" points="42.02 0 40.58 4.65 36 4.65 39.82 7.45 38.17 11.95 42.02 9.07 45.7 11.95 44.21 7.4 48 4.63 43.22 4.63 42.02 0"/><polygon class="cls-1" points="56.22 7.39 57.7 11.95 54.01 9.07 50.16 11.95 51.81 7.45 47.99 4.66 52.59 4.66 54.01 0.01 55.22 4.63 60 4.63 56.22 7.39"/><polygon class="cls-2" points="56.22 7.39 57.7 11.95 54.01 9.07 54.01 0.01 55.22 4.63 60 4.63 56.22 7.39"/></svg>