<svg id="Calque_1" data-name="Calque 1" xmlns="http://www.w3.org/2000/svg" viewBox="0 0 40 40"><defs><style>.cls-1{fill:#d80a08;}.cls-2{fill:#fff;}</style></defs><title>logo-youtube</title><path class="cls-1" d="M.07,20.8V19.46a2.55,2.55,0,0,0,.11-.55,17.39,17.39,0,0,1,.69-4.23A19.93,19.93,0,0,1,9.24,3.33,19.26,19.26,0,0,1,18.43.18,1.92,1.92,0,0,0,18.8.07h2.67a1.58,1.58,0,0,0,.37.11c.42.06.84.09,1.26.14a17.78,17.78,0,0,1,4.58,1.25A19.76,19.76,0,0,1,35.44,7.2a20.1,20.1,0,0,1,3.45,5.9A18.4,18.4,0,0,1,40,17.29a1.25,1.25,0,0,0,.12.3v5.15c0,.08-.11.14-.12.22-.1.5-.17,1-.27,1.51A18.62,18.62,0,0,1,37.57,30a19.93,19.93,0,0,1-9.76,8.65A18.47,18.47,0,0,1,23.13,40a.82.82,0,0,0-.25.12H17.39a.68.68,0,0,0-.22-.12,18.13,18.13,0,0,1-4.52-1.23A20,20,0,0,1,1.25,26.79a20.27,20.27,0,0,1-1-4.6Zm20.06,7.36c2.61,0,5.21,0,7.82,0a3.68,3.68,0,0,0,3.76-3.76V15.74a3.5,3.5,0,0,0-.94-2.4,3.78,3.78,0,0,0-3-1.23H12.17a3.69,3.69,0,0,0-3.61,3.78v8.49a4.14,4.14,0,0,0,.1.93,3.67,3.67,0,0,0,3.64,2.85C14.91,28.17,17.52,28.16,20.13,28.16Z"/><path class="cls-2" d="M20.13,28.16c-2.61,0-5.22,0-7.83,0a3.67,3.67,0,0,1-3.64-2.85,4.14,4.14,0,0,1-.1-.93V15.89a3.69,3.69,0,0,1,3.61-3.78H27.75a3.78,3.78,0,0,1,3,1.23,3.5,3.5,0,0,1,.94,2.4V24.4A3.68,3.68,0,0,1,28,28.16C25.34,28.17,22.74,28.16,20.13,28.16ZM18,14.07V26.2l8.32-6.06Z"/><path class="cls-1" d="M18,14.07l8.32,6.07L18,26.2Z"/></svg>