<svg id="Calque_1" data-name="Calque 1" xmlns="http://www.w3.org/2000/svg" viewBox="0 0 40 40"><defs><style>.cls-1{fill:#1877f2;}.cls-2{fill:#fff;}</style></defs><title>logo-facebook</title><path class="cls-1" d="M40,20A20,20,0,1,0,16.88,39.76v-14H11.8V20h5.08V15.59c0-5,3-7.78,7.55-7.78a30.09,30.09,0,0,1,4.48.4v4.92H26.39c-2.49,0-3.26,1.54-3.26,3.12V20h5.55l-.89,5.79H23.13v14A20,20,0,0,0,40,20Z"/><path class="cls-2" d="M27.78,25.79,28.67,20H23.12V16.25c0-1.58.78-3.12,3.26-3.12H28.9V8.21a30.09,30.09,0,0,0-4.48-.4c-4.57,0-7.55,2.78-7.55,7.78V20H11.79v5.79h5.08v14A20,20,0,0,0,20,40a21.41,21.41,0,0,0,3.12-.24v-14Z"/></svg>