<svg id="Calque_1" data-name="Calque 1" xmlns="http://www.w3.org/2000/svg" viewBox="0 0 40 40"><defs><style>.cls-1{fill:#2daae1;}.cls-2{fill:#fff;}</style></defs><title>logo-twitter</title><circle class="cls-1" cx="20" cy="20" r="19.95"/><path class="cls-2" d="M32.79,12.06a10.49,10.49,0,0,1-3,.83,5.27,5.27,0,0,0,2.3-2.9,10.44,10.44,0,0,1-3.33,1.27,5.25,5.25,0,0,0-9.08,3.59,5.32,5.32,0,0,0,.14,1.2A14.93,14.93,0,0,1,9,10.57a5.24,5.24,0,0,0,1.63,7,5.2,5.2,0,0,1-2.38-.65V17a5.25,5.25,0,0,0,4.21,5.15,5.43,5.43,0,0,1-2.37.09A5.24,5.24,0,0,0,15,25.86a10.53,10.53,0,0,1-6.52,2.25A10.36,10.36,0,0,1,7.21,28a14.93,14.93,0,0,0,23-12.58c0-.22,0-.45,0-.68a10.43,10.43,0,0,0,2.62-2.72Z"/></svg>